<svg width="75" height="75" viewBox="0 0 75 75" fill="none" xmlns="http://www.w3.org/2000/svg">
<path d="M58.184 9.43354L50.7674 5.54146C44.257 2.12494 41.0018 0.416656 37.5001 0.416656C33.9983 0.416656 30.7431 2.12494 24.2327 5.54146L23.0397 6.16754L56.1292 25.0758L71.0245 17.6282C68.6282 14.9143 64.7619 12.8853 58.184 9.43354Z" fill="white"/>
<path d="M73.6502 22.5344L58.8228 29.9481V41.2083C58.8228 42.7443 57.5775 43.9896 56.0415 43.9896C54.5056 43.9896 53.2603 42.7443 53.2603 41.2083V32.7292L40.2811 39.2188V74.2273C42.9433 73.5643 45.9727 71.9745 50.7672 69.4584L58.1838 65.5665C66.1631 61.3791 70.1525 59.2857 72.3678 55.5236C74.5832 51.7615 74.5832 47.0798 74.5832 37.717V37.2831C74.5832 30.2647 74.5832 25.8765 73.6502 22.5344Z" fill="white"/>
<path d="M34.7188 74.2273V39.2188L1.34991 22.5344C0.416748 25.8765 0.416748 30.2647 0.416748 37.2831V37.717C0.416748 47.0798 0.416748 51.7615 2.63211 55.5236C4.84743 59.2857 8.83696 61.3791 16.816 65.5665L24.2327 69.4584C29.0274 71.9745 32.0566 73.5643 34.7188 74.2273Z" fill="white"/>
<path d="M3.97546 17.6283L37.4999 34.3906L50.1498 28.0657L17.1952 9.23455L16.8159 9.43358C10.2383 12.8854 6.37183 14.9144 3.97546 17.6283Z" fill="white"/>
</svg>
