<svg width="31" height="31" viewBox="0 0 31 31" fill="none" xmlns="http://www.w3.org/2000/svg">
<path d="M6.39279 27.5793L3.83341 9.66663H27.1667L24.6074 27.5793C24.508 28.2743 24.1613 28.9102 23.6309 29.3702C23.1005 29.8301 22.4219 30.0833 21.7199 30.0833H9.28029C8.57821 30.0833 7.89968 29.8301 7.36926 29.3702C6.83884 28.9102 6.49213 28.2743 6.39279 27.5793ZM28.6251 3.83329H21.3334V2.37496C21.3334 1.98819 21.1798 1.61725 20.9063 1.34376C20.6328 1.07027 20.2619 0.916626 19.8751 0.916626H11.1251C10.7383 0.916626 10.3674 1.07027 10.0939 1.34376C9.82039 1.61725 9.66675 1.98819 9.66675 2.37496V3.83329H2.37508C1.98831 3.83329 1.61737 3.98694 1.34388 4.26043C1.07039 4.53392 0.916748 4.90485 0.916748 5.29163C0.916748 5.6784 1.07039 6.04933 1.34388 6.32282C1.61737 6.59631 1.98831 6.74996 2.37508 6.74996H28.6251C29.0119 6.74996 29.3828 6.59631 29.6563 6.32282C29.9298 6.04933 30.0834 5.6784 30.0834 5.29163C30.0834 4.90485 29.9298 4.53392 29.6563 4.26043C29.3828 3.98694 29.0119 3.83329 28.6251 3.83329Z" fill="white"/>
</svg>
